<?xml version="1.0" encoding="utf-8"?>
<!-- Generated by IcoMoon.io -->
<!DOCTYPE svg PUBLIC "-//W3C//DTD SVG 1.1//EN" "http://www.w3.org/Graphics/SVG/1.1/DTD/svg11.dtd">
<svg version="1.1" xmlns="http://www.w3.org/2000/svg" xmlns:xlink="http://www.w3.org/1999/xlink" width="640" height="512" viewBox="0 0 640 512">
<g id="icomoon-ignore">
</g>
<path d="M320 288c52.935 0 100.935 21.533 135.701 56.299l-45.234 45.234c-23.177-23.178-55.178-37.533-90.467-37.533s-67.289 14.355-90.467 37.533l-45.234-45.234c34.766-34.766 82.766-56.299 135.701-56.299zM93.726 253.726c60.44-60.44 140.799-93.726 226.274-93.726s165.834 33.286 226.275 93.726l-45.255 45.254c-48.353-48.352-112.64-74.98-181.020-74.98-68.381 0-132.667 26.628-181.019 74.981l-45.255-45.255zM494.392 67.219c53.351 22.566 101.258 54.864 142.391 95.998v0l-45.254 45.254c-72.528-72.528-168.96-112.471-271.529-112.471-102.57 0-199 39.943-271.529 112.471l-45.255-45.255c41.134-41.133 89.041-73.431 142.392-95.997 55.252-23.369 113.926-35.219 174.392-35.219s119.139 11.85 174.392 35.219zM288 448c0-17.673 14.327-32 32-32s32 14.327 32 32c0 17.673-14.327 32-32 32s-32-14.327-32-32z"></path>
</svg>
