<?xml version="1.0" encoding="utf-8"?>
<!-- Generated by IcoMoon.io -->
<!DOCTYPE svg PUBLIC "-//W3C//DTD SVG 1.1//EN" "http://www.w3.org/Graphics/SVG/1.1/DTD/svg11.dtd">
<svg version="1.1" xmlns="http://www.w3.org/2000/svg" xmlns:xlink="http://www.w3.org/1999/xlink" width="512" height="512" viewBox="0 0 512 512">
<g id="icomoon-ignore">
</g>
<path d="M464 0h-416c-26.4 0-48 21.6-48 48v416c0 26.4 21.6 48 48 48h416c26.4 0 48-21.6 48-48v-416c0-26.4-21.6-48-48-48zM192 384c-70.8 0-128-57.2-128-128s57.2-128 128-128c34.6 0 63.5 12.6 85.8 33.5l-34.8 33.4c-9.5-9.1-26.1-19.7-51-19.7-43.7 0-79.4 36.2-79.4 80.8s35.7 80.8 79.4 80.8c50.7 0 69.7-36.4 72.6-55.2h-72.6v-43.9h120.9c1.1 6.4 2 12.8 2 21.2 0 73.2-49 125.1-122.9 125.1zM448 256h-32v32h-32v-32h-32v-32h32v-32h32v32h32v32z"></path>
</svg>
