<?xml version="1.0" encoding="UTF-8" standalone="no"?>
<!-- Generated by IcoMoon.io -->

<svg
   xmlns:dc="http://purl.org/dc/elements/1.1/"
   xmlns:cc="http://creativecommons.org/ns#"
   xmlns:rdf="http://www.w3.org/1999/02/22-rdf-syntax-ns#"
   xmlns:svg="http://www.w3.org/2000/svg"
   xmlns="http://www.w3.org/2000/svg"
   xmlns:sodipodi="http://sodipodi.sourceforge.net/DTD/sodipodi-0.dtd"
   xmlns:inkscape="http://www.inkscape.org/namespaces/inkscape"
   version="1.1"
   width="512"
   height="512"
   viewBox="0 0 512 512"
   id="svg2"
   inkscape:version="0.91 r13725"
   sodipodi:docname="userg.svg">
  <metadata
     id="metadata11">
    <rdf:RDF>
      <cc:Work
         rdf:about="">
        <dc:format>image/svg+xml</dc:format>
        <dc:type
           rdf:resource="http://purl.org/dc/dcmitype/StillImage" />
      </cc:Work>
    </rdf:RDF>
  </metadata>
  <defs
     id="defs9" />
  <sodipodi:namedview
     pagecolor="#ffffff"
     bordercolor="#666666"
     borderopacity="1"
     objecttolerance="10"
     gridtolerance="10"
     guidetolerance="10"
     inkscape:pageopacity="0"
     inkscape:pageshadow="2"
     inkscape:window-width="1366"
     inkscape:window-height="705"
     id="namedview7"
     showgrid="false"
     inkscape:zoom="0.4609375"
     inkscape:cx="256"
     inkscape:cy="256"
     inkscape:window-x="-8"
     inkscape:window-y="-8"
     inkscape:window-maximized="1"
     inkscape:current-layer="svg2" />
  <g
     id="icomoon-ignore" />
  <path
     d="M292.572 367.207v-30.16c40.284-22.702 73.143-79.298 73.143-135.904 0-90.891 0-164.571-109.714-164.571s-109.714 73.681-109.714 164.571c0 56.606 32.858 113.202 73.143 135.904v30.16c-124.058 10.142-219.429 71.097-219.429 144.793h512c0-73.696-95.37-134.651-219.429-144.793z"
     id="path5" />
  <path
     style="fill:#666666;fill-opacity:1;stroke:#dc6e53;stroke-width:0;stroke-linecap:round;stroke-linejoin:round;stroke-miterlimit:4;stroke-dasharray:none;stroke-opacity:0"
     d="M 2.159793,499.74237 C 4.5622764,480.43249 17.147175,458.04451 36.001744,439.53898 73.78921,402.45107 129.93935,379.71933 210.11525,369.0511 l 10.30509,-1.37121 0,-16.06192 c 0,-14.44545 -0.49126,-16.32177 -4.88136,-18.64391 -24.41209,-12.91282 -51.60472,-52.56253 -62.3129,-90.85881 -8.41216,-30.08485 -7.79839,-102.62829 1.16083,-137.20304 12.03621,-46.449267 42.91554,-66.665024 101.83004,-66.665024 36.88461,0 58.89762,6.603894 77.23477,23.170399 22.83337,20.628586 30.03244,49.142465 30.25768,119.843645 0.15555,48.83628 -2.009,60.29645 -17.44903,92.38305 -11.04644,22.95611 -31.4174,48.00364 -46.74549,57.47692 -7.45561,4.60783 -7.50132,4.73334 -7.50132,20.5974 l 0,15.96129 10.30508,1.39577 c 57.43632,7.77931 100.08863,20.68866 133.96611,40.54675 43.23959,25.34593 68.62759,56.74746 73.80755,91.28997 l 1.53257,10.21982 -255.44109,0 -255.44107909,0 1.41709209,-11.38983 z"
     id="path4139"
     inkscape:connector-curvature="0" />
</svg>
